<svg xmlns="http://www.w3.org/2000/svg" viewBox="0 0 308.64 149.43"><defs/><defs><style>.cls-1{fill:#fff}.cls-2{fill:#818386}.cls-3{fill:#e50019}.cls-4{fill:#1a1818}.cls-5{fill:none;stroke:#1a1818;stroke-miterlimit:10;stroke-width:3px}.cls-6{isolation:isolate}</style></defs><g id="Layer_2" data-name="Layer 2"><g id="Layer_1-2" data-name="Layer 1"><g id="Group_3103" data-name="Group 3103"><rect id="Rectangle_460" width="47.15" height="66.01" x="238.33" y="83.08" class="cls-1" data-name="Rectangle 460" rx="8.8"/><path id="Path_1217" d="M279.39 149.43h-35A6.44 6.44 0 01238 143V89.18a6.44 6.44 0 016.44-6.44h35a6.45 6.45 0 016.44 6.44V143a6.45 6.45 0 01-6.49 6.43zm-35-66a5.75 5.75 0 00-5.75 5.75V143a5.75 5.75 0 005.75 5.75h35a5.76 5.76 0 005.75-5.75V89.18a5.76 5.76 0 00-5.75-5.75z" class="cls-2" data-name="Path 1217"/><path id="Path_1218" d="M258.05 94.38a6.46 6.46 0 01-1.13 3.88 5.93 5.93 0 01-3.22 2.17v.13a5.81 5.81 0 013.58 1.81 5.74 5.74 0 011.26 3.92 7.12 7.12 0 01-2.1 5.4 8 8 0 01-5.76 2 11.61 11.61 0 01-5.46-1.16v-4.08a10.47 10.47 0 002.4 1.05 8.68 8.68 0 002.48.39 4.29 4.29 0 002.9-.89 3.61 3.61 0 001-2.84q0-3.68-4.51-3.67h-1.39v-3.4h1.33a4.46 4.46 0 003.05-.94 3.51 3.51 0 001.07-2.8 3.18 3.18 0 00-.68-2.2 2.47 2.47 0 00-1.87-.75 5.53 5.53 0 00-3.72 1.6l-2.06-3a8.51 8.51 0 016.25-2.48 7 7 0 014.85 1.57 5.48 5.48 0 011.73 4.29z" class="cls-3" data-name="Path 1218"/><path id="Path_1219" d="M273.89 127.09a36.78 36.78 0 01-3.53-5.91 36.83 36.83 0 01-3.54 5.91 29.12 29.12 0 01-5.3 5.62 29.12 29.12 0 015.3 5.62 36.4 36.4 0 013.54 5.91 36.35 36.35 0 013.53-5.91 29.74 29.74 0 015.3-5.62 29.74 29.74 0 01-5.3-5.62z" class="cls-3" data-name="Path 1219"/><rect id="Rectangle_461" width="47.15" height="66.01" x="178.84" y="83.08" class="cls-1" data-name="Rectangle 461" rx="8.8"/><path id="Path_1220" d="M219.89 149.43h-35a6.44 6.44 0 01-6.44-6.44V89.18a6.44 6.44 0 016.44-6.44h35a6.44 6.44 0 016.44 6.44V143a6.44 6.44 0 01-6.44 6.43zm-35-66a5.76 5.76 0 00-5.75 5.75V143a5.76 5.76 0 005.75 5.75h35a5.76 5.76 0 005.75-5.75V89.18a5.76 5.76 0 00-5.75-5.75z" class="cls-2" data-name="Path 1220"/><path id="Path_1221" d="M203.68 101.08a19.73 19.73 0 01-1.11 7.1 8.72 8.72 0 01-3.29 4.32l4.5 6.69h-5.26l-3.38-5.5h-.25a7.52 7.52 0 01-6.54-3.26q-2.28-3.27-2.28-9.4t2.28-9.32a7.54 7.54 0 016.57-3.24 7.42 7.42 0 016.5 3.26c1.51 2.18 2.26 5.27 2.26 9.35zm-13 0a15.28 15.28 0 001.05 6.38 3.36 3.36 0 003.11 2.2q4.11 0 4.12-8.58t-4.09-8.58a3.35 3.35 0 00-3.14 2.18 15.4 15.4 0 00-1.05 6.4z" class="cls-4" data-name="Path 1221"/><path id="Path_1222" d="M217 129.07a4.37 4.37 0 00-3 1.19c-.28.24-.59.35-.75.22s1.26-1.59 1.26-1.59a4.37 4.37 0 00-2.82-7.71 4.39 4.39 0 00-4.39 4.38 4.38 4.38 0 001.57 3.33s1.51 1.39 1.25 1.59-.46 0-.75-.22a4.36 4.36 0 00-7.36 3.2 4.38 4.38 0 004.38 4.38 4.39 4.39 0 003.77-2.17s1.15-1.73.84.9c-.65 5.54-2.6 7.67-2.6 7.67h6.6s-1.94-2.13-2.6-7.67c-.31-2.63.85-.9.85-.9a4.37 4.37 0 008.14-2.21 4.38 4.38 0 00-4.39-4.39z" class="cls-4" data-name="Path 1222"/><rect id="Rectangle_462" width="47.15" height="66.01" x=".35" y="83.08" class="cls-1" data-name="Rectangle 462" rx="8.8"/><path id="Path_1223" d="M41.4 149.43h-35A6.44 6.44 0 010 143V89.18a6.44 6.44 0 016.44-6.44h35a6.44 6.44 0 016.44 6.44V143a6.44 6.44 0 01-6.48 6.43zm-35-66a5.76 5.76 0 00-5.71 5.75V143a5.76 5.76 0 005.75 5.75h35a5.76 5.76 0 005.71-5.75V89.18a5.76 5.76 0 00-5.75-5.75z" class="cls-2" data-name="Path 1223"/><path id="Path_1224" d="M7.41 103q0-7.49 2.33-11a8 8 0 017.1-3.46 10.84 10.84 0 011.51.1 9 9 0 011.14.19v3.77a9.74 9.74 0 00-2.28-.27 5.47 5.47 0 00-3.13.84 5.09 5.09 0 00-1.86 2.5 15.31 15.31 0 00-.77 4.69h.18a4.64 4.64 0 011.61-2.1 4 4 0 012.36-.71 4.37 4.37 0 013.84 2 10 10 0 011.37 5.72 9.63 9.63 0 01-1.81 6.16 6 6 0 01-4.91 2.27 5.52 5.52 0 01-5-2.72C8 109.17 7.41 106.5 7.41 103zm6.72 6.9a1.82 1.82 0 001.62-1.1 7.32 7.32 0 00.61-3.45 6.79 6.79 0 00-.54-3 1.75 1.75 0 00-1.65-1.1 1.81 1.81 0 00-1.61 1 4.84 4.84 0 00-.62 2.58 9.52 9.52 0 00.58 3.74c.38.87.92 1.31 1.61 1.31z" class="cls-4" data-name="Path 1224"/><path id="Path_1225" d="M41.32 134.25s-.8-1-2.8-3.57a46 46 0 01-6.15-9.5 45.94 45.94 0 01-6.14 9.5l-2.81 3.57a4.39 4.39 0 003.63 6.84 4.38 4.38 0 003.76-2.17s.23-.42.37-.42.12.27.06.55a12.12 12.12 0 01-2.18 5.16h6.61a12 12 0 01-2.17-5.16c-.07-.28 0-.55.06-.55s.36.42.36.42a4.37 4.37 0 008.14-2.22 4.3 4.3 0 00-.74-2.45z" class="cls-4" data-name="Path 1225"/><rect id="Rectangle_463" width="47.15" height="66.01" x="59.84" y="83.08" class="cls-1" data-name="Rectangle 463" rx="8.8"/><path id="Path_1226" d="M100.89 149.43H65.94A6.44 6.44 0 0159.5 143V89.18a6.44 6.44 0 016.44-6.44h35a6.45 6.45 0 016.45 6.44V143a6.45 6.45 0 01-6.5 6.43zm-34.95-66a5.74 5.74 0 00-5.75 5.75V143a5.74 5.74 0 005.75 5.75h35a5.74 5.74 0 005.75-5.75V89.18a5.74 5.74 0 00-5.75-5.75z" class="cls-2" data-name="Path 1226"/><path id="Path_1227" d="M75.11 113.36h-4.49V99q0-2.34.24-5.4c-.08.12-.37.46-.87 1s-1.46 1.59-2.9 3.06l-2.55-2.78 6.52-6h4z" class="cls-3" data-name="Path 1227"/><path id="Path_1228" d="M92.53 101.11c0 4.44-.53 7.64-1.6 9.62a5.45 5.45 0 01-5.15 3 5.32 5.32 0 01-5.1-3c-1-2-1.55-5.18-1.55-9.6s.54-7.63 1.62-9.63A5.88 5.88 0 0191 91.41c1 1.95 1.53 5.19 1.53 9.7zm-8.85 0a35 35 0 00.45 6.93c.29 1.19.85 1.79 1.68 1.79a1.44 1.44 0 001.3-.78 6.64 6.64 0 00.66-2.55 51 51 0 00.2-5.39 32.57 32.57 0 00-.47-6.9c-.31-1.23-.87-1.84-1.69-1.84s-1.39.61-1.68 1.83a34.81 34.81 0 00-.45 6.91z" class="cls-3" data-name="Path 1228"/><path id="Path_1229" d="M95.4 127.09a36.78 36.78 0 01-3.53-5.91 36.83 36.83 0 01-3.54 5.91 29.12 29.12 0 01-5.3 5.62 29.12 29.12 0 015.3 5.62 36.4 36.4 0 013.54 5.91 36.35 36.35 0 013.53-5.91 29.74 29.74 0 015.3-5.62 29.74 29.74 0 01-5.3-5.62z" class="cls-3" data-name="Path 1229"/><rect id="Rectangle_464" width="47.15" height="66.01" x="119.34" y="83.08" class="cls-1" data-name="Rectangle 464" rx="8.8"/><path id="Path_1230" d="M160.39 149.43h-34.95A6.45 6.45 0 01119 143V89.18a6.47 6.47 0 016.45-6.45h34.95a6.45 6.45 0 016.44 6.45V143a6.44 6.44 0 01-6.45 6.43zm-34.95-66a5.76 5.76 0 00-5.75 5.75V143a5.74 5.74 0 005.75 5.74h34.95a5.75 5.75 0 005.75-5.74V89.17a5.76 5.76 0 00-5.75-5.75z" class="cls-2" data-name="Path 1230"/><path id="Path_1231" d="M139.06 94.38a6.4 6.4 0 01-1.14 3.88 5.91 5.91 0 01-3.21 2.17v.13a5.78 5.78 0 013.57 1.81 5.7 5.7 0 011.27 3.92 7.12 7.12 0 01-2.1 5.4 8 8 0 01-5.76 2 11.58 11.58 0 01-5.46-1.16v-4.08a10.47 10.47 0 002.4 1.05 8.68 8.68 0 002.48.39A4.3 4.3 0 00134 109a3.7 3.7 0 001-2.85c0-2.44-1.5-3.67-4.51-3.67h-1.39v-3.4h1.33a4.47 4.47 0 003-.93 3.51 3.51 0 001.07-2.8 3.21 3.21 0 00-.68-2.2 2.47 2.47 0 00-1.82-.75 5.53 5.53 0 00-3.71 1.6l-2.06-3a8.51 8.51 0 016.25-2.48 7 7 0 014.85 1.57 5.48 5.48 0 011.73 4.29z" class="cls-3" data-name="Path 1231"/><path id="Path_1232" d="M161 125.88a4.69 4.69 0 00-9.35-.48.42.42 0 000 .16c0 .32-.15.38-.25.38s-.25-.06-.25-.38a.75.75 0 000-.16 4.69 4.69 0 00-9.35.48c0 .2 0 .41.06.61s.12 2.07 2.33 5.79c.8 1.35 2.57 3.48 4.1 5.86a39.07 39.07 0 013.16 6.09 40 40 0 013.17-6.09c1.53-2.38 3.31-4.51 4.1-5.86 2.2-3.72 2.33-5.79 2.33-5.79a4.22 4.22 0 00-.05-.61z" class="cls-3" data-name="Path 1232"/><path id="Path_1233" d="M2 75.46s10.46-13.62 30.75-13.62 28.13 3.77 33.64 3.77 16-8.72 16-8.72" class="cls-5" data-name="Path 1233"/><path id="Path_1234" d="M162.25 75.46s-10.42-13.62-30.72-13.62-28.12 3.77-33.63 3.77-16-8.72-16-8.72" class="cls-5" data-name="Path 1234"/><g id="Flop" class="cls-6"><g class="cls-6"><path d="M62 41.64h-4.18V18.79h10.24v3.67H62v6.35h5.61v3.67H62zM74.82 41.64h-4.15V17.32h4.15zM91.2 32.9a10.8 10.8 0 01-1.82 6.67 5.87 5.87 0 01-5 2.38 6 6 0 01-3.54-1.09 7 7 0 01-2.36-3.15 12.85 12.85 0 01-.82-4.81 10.8 10.8 0 011.79-6.61 5.9 5.9 0 015-2.39 5.82 5.82 0 014.9 2.43 10.74 10.74 0 011.85 6.57zm-9.2 0a10.89 10.89 0 00.54 4.1 2 2 0 001.91 1.39c1.66 0 2.5-1.83 2.5-5.5a10.55 10.55 0 00-.6-4.08 2 2 0 00-3.81 0A10.58 10.58 0 0082 32.9zM101.88 42a3.85 3.85 0 01-2-.51 4.79 4.79 0 01-1.62-1.79h-.21c.16 1.42.25 2.27.25 2.56v7.11h-4.18V24.23h3.22l.72 2.27h.18a4.08 4.08 0 013.76-2.6 4.15 4.15 0 013.72 2.35 13.63 13.63 0 011.34 6.65 13.26 13.26 0 01-1.39 6.64 4.23 4.23 0 01-3.79 2.46zm-1.28-14.57a1.8 1.8 0 00-1.75 1.14 9.77 9.77 0 00-.58 3.75v.55a11.82 11.82 0 00.55 4.19 1.88 1.88 0 001.81 1.31q2.19 0 2.19-5.53a11.5 11.5 0 00-.54-4.06 1.79 1.79 0 00-1.68-1.35z" class="cls-4"/></g></g><g id="_1st_stage:" class="cls-6" data-name="1st stage:"><g class="cls-6"><path d="M60.79 10.64H59V4.77c0-.64 0-1.37.09-2.2 0 .05-.15.18-.35.42s-.6.65-1.19 1.25l-1-1.14L59.13.64h1.66zM67.15 8.41a2.29 2.29 0 01-.66 1.74 2.69 2.69 0 01-1.92.62 3.64 3.64 0 01-1.87-.44V8.75a3.6 3.6 0 00.88.43 2.94 2.94 0 00.89.17.9.9 0 00.64-.21.71.71 0 00.22-.55.88.88 0 00-.23-.59 4 4 0 00-.85-.63 3.58 3.58 0 01-1.19-1A2.37 2.37 0 0162.7 5a1.88 1.88 0 01.67-1.53 2.71 2.71 0 011.83-.57 3.68 3.68 0 011.9.53l-.59 1.31a2.74 2.74 0 00-1.28-.4.71.71 0 00-.53.18.69.69 0 00-.17.46.8.8 0 00.21.54 3.89 3.89 0 00.81.6 4.84 4.84 0 011 .73 2.18 2.18 0 01.45.68 2.49 2.49 0 01.15.88zM70.94 9.24a2.09 2.09 0 00.83-.2v1.43a2.42 2.42 0 01-1.34.3 1.76 1.76 0 01-1.43-.59 2.81 2.81 0 01-.47-1.77V4.46h-.74v-.81l1-.66.46-1.61h1.16V3h1.39v1.46h-1.48v4c0 .54.21.78.62.78zM80.38 8.41a2.32 2.32 0 01-.65 1.74 2.73 2.73 0 01-1.93.62 3.61 3.61 0 01-1.86-.44V8.75a3.43 3.43 0 00.88.43 2.88 2.88 0 00.88.17.92.92 0 00.65-.21.75.75 0 00.22-.55.93.93 0 00-.23-.59 4.13 4.13 0 00-.86-.63 3.54 3.54 0 01-1.18-1A2.37 2.37 0 0175.94 5a1.91 1.91 0 01.66-1.53 2.75 2.75 0 011.83-.57 3.72 3.72 0 011.91.53l-.6 1.31a2.68 2.68 0 00-1.28-.4.68.68 0 00-.52.18.65.65 0 00-.18.46.76.76 0 00.24.52 3.76 3.76 0 00.8.6 5 5 0 011 .73 2.15 2.15 0 01.44.68 2.29 2.29 0 01.14.9zM84.17 9.24A2.05 2.05 0 0085 9v1.43a2.38 2.38 0 01-1.33.3 1.76 1.76 0 01-1.47-.59 2.75 2.75 0 01-.48-1.77V4.46H81v-.81l1-.66.47-1.61h1.16V3h1.38v1.46h-1.45v4c0 .54.2.78.61.78zM89.8 10.64l-.36-1a2.63 2.63 0 01-.84.92 2.08 2.08 0 01-1.08.25 1.59 1.59 0 01-1.33-.63 2.8 2.8 0 01-.48-1.75 2.25 2.25 0 01.66-1.78 3.12 3.12 0 012-.65h1v-.63c0-.71-.3-1.06-.92-1.06a3.11 3.11 0 00-1.57.53l-.63-1.26a4.53 4.53 0 012.47-.72 2.37 2.37 0 011.84.7 2.82 2.82 0 01.63 2v5.12zm-1.58-1.29A.92.92 0 0089 8.9a2.08 2.08 0 00.29-1.19v-.64h-.56a1.29 1.29 0 00-.91.35 1.41 1.41 0 00-.29 1c.02.58.24.93.69.93zM98.09 3v1.1l-.91.21a2.54 2.54 0 01.26 1.2 2.63 2.63 0 01-.65 1.89 2.42 2.42 0 01-1.79.69 1.57 1.57 0 01-.5-.06 3.07 3.07 0 00-.25.26.55.55 0 00-.11.36c0 .32.27.48.82.48H96a2 2 0 011.5.52 2.13 2.13 0 01.5 1.57 2.52 2.52 0 01-.89 2.06 4 4 0 01-2.55.72 3 3 0 01-2-.55 1.9 1.9 0 01-.56-1.57 1.74 1.74 0 01.39-1.12 2.24 2.24 0 011.08-.7 1.33 1.33 0 01-.57-.42 1.06 1.06 0 01-.27-.64 1.09 1.09 0 01.07-.42 1.24 1.24 0 01.19-.36 4.46 4.46 0 01.52-.49 2.05 2.05 0 01-.75-.88 3.18 3.18 0 01-.27-1.32 2.68 2.68 0 01.66-1.94 2.49 2.49 0 011.88-.68 2.68 2.68 0 01.53.05 2.39 2.39 0 01.46.11zm-4.48 8.7a.87.87 0 00.28.7 1.22 1.22 0 00.81.24 2 2 0 001.24-.31 1 1 0 00.42-.87.71.71 0 00-.23-.6 1.35 1.35 0 00-.83-.18h-.88a.72.72 0 00-.59.28 1.13 1.13 0 00-.22.78zm.56-6.23c0 .9.25 1.35.76 1.35s.74-.46.74-1.36-.25-1.4-.74-1.4-.76.51-.76 1.45zM101.81 10.77a2.73 2.73 0 01-2.25-1 4.47 4.47 0 01-.83-2.88 5 5 0 01.75-2.94 2.4 2.4 0 012.08-1.06 2.37 2.37 0 012 .9 4 4 0 01.72 2.54v1h-3.66a2.44 2.44 0 00.38 1.48 1.31 1.31 0 001.09.49 3.54 3.54 0 001.82-.55v1.5a4 4 0 01-2.1.52zm-.27-6.49a.75.75 0 00-.64.41 2.84 2.84 0 00-.29 1.31h1.84a2.77 2.77 0 00-.25-1.26.73.73 0 00-.66-.46zM105.43 4a1.13 1.13 0 01.28-.83 1.11 1.11 0 01.85-.3 1.14 1.14 0 01.84.29 1.16 1.16 0 01.29.84 1.09 1.09 0 01-.3.82 1.11 1.11 0 01-.83.3 1.14 1.14 0 01-.85-.3 1.13 1.13 0 01-.28-.82zm0 5.71a1.14 1.14 0 01.28-.83 1.38 1.38 0 011.69 0 1.13 1.13 0 01.29.83 1.11 1.11 0 01-.3.83 1.34 1.34 0 01-1.68 0 1.12 1.12 0 01-.28-.84z" class="cls-4"/></g></g><g id="_2nd_stage:" class="cls-6" data-name="2nd stage:"><g class="cls-6"><path d="M178.4 10.64H173V9.25l1.78-2.52c.49-.69.82-1.2 1-1.54a4.79 4.79 0 00.4-1 3.42 3.42 0 00.13-1 1.26 1.26 0 00-.26-.86.84.84 0 00-.66-.28 1.27 1.27 0 00-.68.19A3.63 3.63 0 00174 3l-1-1.1a4.48 4.48 0 011.29-1.1 3 3 0 011.33-.3 2.5 2.5 0 011.89.71 2.71 2.71 0 01.68 2 4.7 4.7 0 01-.12 1.08 5.32 5.32 0 01-.37 1 9.65 9.65 0 01-.63 1.08 66 66 0 01-1.94 2.55V9h3.27zM183.59 10.64V6.1a3.09 3.09 0 00-.2-1.25.67.67 0 00-.64-.43.92.92 0 00-.87.59 5.09 5.09 0 00-.27 2v3.66h-1.82V3h1.44l.22 1h.12a1.88 1.88 0 01.7-.82 2 2 0 011.08-.3 1.79 1.79 0 011.55.71 3.47 3.47 0 01.52 2.08v5zM188.89 10.77a1.84 1.84 0 01-1.66-1 5.67 5.67 0 01-.61-2.89 5.9 5.9 0 01.6-2.91 1.81 1.81 0 011.64-1.05 1.55 1.55 0 01.89.25 2.31 2.31 0 01.71.87h.11c-.06-.69-.09-1.18-.09-1.46V0h1.82v10.64H191l-.31-1h-.06a1.82 1.82 0 01-1.74 1.13zm.59-1.53a.78.78 0 00.74-.47 4.28 4.28 0 00.25-1.67v-.24a5.07 5.07 0 00-.24-1.86.79.79 0 00-.77-.54c-.34 0-.58.21-.74.62a5.49 5.49 0 00-.23 1.8 4.93 4.93 0 00.24 1.77.78.78 0 00.75.59zM201.38 8.41a2.32 2.32 0 01-.65 1.74 2.73 2.73 0 01-1.93.62 3.61 3.61 0 01-1.86-.44V8.75a3.53 3.53 0 00.87.43 2.94 2.94 0 00.89.17.92.92 0 00.65-.21.75.75 0 00.22-.55.93.93 0 00-.23-.61 4.13 4.13 0 00-.86-.63 3.58 3.58 0 01-1.19-1 2.45 2.45 0 01-.35-1.35 1.91 1.91 0 01.66-1.53 2.75 2.75 0 011.83-.57 3.72 3.72 0 011.91.53l-.6 1.31a2.68 2.68 0 00-1.28-.4.68.68 0 00-.52.18.65.65 0 00-.18.46.76.76 0 00.22.54 3.76 3.76 0 00.8.6 5 5 0 011 .73 2.15 2.15 0 01.44.68 2.29 2.29 0 01.16.88zM205.17 9.24A2.09 2.09 0 00206 9v1.43a2.4 2.4 0 01-1.33.3 1.76 1.76 0 01-1.47-.59 2.75 2.75 0 01-.48-1.77V4.46H202v-.81l1-.66.47-1.61h1.16V3h1.38v1.46h-1.38v4c-.07.54.13.78.54.78zM210.8 10.64l-.36-1a2.63 2.63 0 01-.84.92 2.08 2.08 0 01-1.08.25 1.59 1.59 0 01-1.33-.63 2.8 2.8 0 01-.48-1.75 2.25 2.25 0 01.66-1.78 3.12 3.12 0 012-.65h1v-.63c0-.71-.3-1.06-.92-1.06a3.11 3.11 0 00-1.57.53l-.63-1.26a4.53 4.53 0 012.47-.72 2.38 2.38 0 011.84.7 2.82 2.82 0 01.63 2v5.12zm-1.58-1.29a.92.92 0 00.8-.45 2.16 2.16 0 00.29-1.19v-.64h-.56a1.29 1.29 0 00-.91.35 1.41 1.41 0 00-.29 1c0 .58.22.93.67.93zM219.08 3v1.1l-.9.21a2.54 2.54 0 01.26 1.2 2.63 2.63 0 01-.65 1.89 2.42 2.42 0 01-1.84.69 1.57 1.57 0 01-.5-.06 3.07 3.07 0 00-.25.26.55.55 0 00-.11.36c0 .32.27.48.82.48H217a2 2 0 011.5.52 2.13 2.13 0 01.52 1.57 2.52 2.52 0 01-.89 2.06 4 4 0 01-2.56.72 3 3 0 01-1.94-.55 1.9 1.9 0 01-.69-1.57 1.74 1.74 0 01.39-1.12 2.24 2.24 0 011.08-.7 1.33 1.33 0 01-.57-.42 1.06 1.06 0 01-.22-.67 1.09 1.09 0 01.07-.42 1.24 1.24 0 01.19-.36 4.46 4.46 0 01.52-.49 2 2 0 01-.75-.88 3.18 3.18 0 01-.27-1.32 2.68 2.68 0 01.66-1.94 2.49 2.49 0 011.88-.68 2.68 2.68 0 01.53.05 2.39 2.39 0 01.46.11zm-4.47 8.7a.87.87 0 00.28.7 1.22 1.22 0 00.81.24 2 2 0 001.24-.31 1 1 0 00.42-.87.71.71 0 00-.23-.6 1.35 1.35 0 00-.83-.18h-.88a.7.7 0 00-.59.28 1.13 1.13 0 00-.22.78zm.56-6.23c0 .9.25 1.35.76 1.35s.74-.46.74-1.36-.25-1.4-.74-1.4-.76.51-.76 1.45zM222.81 10.77a2.73 2.73 0 01-2.25-1 4.47 4.47 0 01-.83-2.88 5 5 0 01.75-2.94 2.4 2.4 0 012.08-1.06 2.37 2.37 0 012 .9 4 4 0 01.72 2.54v1h-3.66a2.44 2.44 0 00.38 1.48 1.31 1.31 0 001.09.49 3.54 3.54 0 001.82-.55v1.5a4 4 0 01-2.1.52zm-.27-6.49a.75.75 0 00-.64.41 2.71 2.71 0 00-.29 1.31h1.84a2.77 2.77 0 00-.25-1.26.73.73 0 00-.66-.46zM226.43 4a1.13 1.13 0 01.28-.83 1.1 1.1 0 01.84-.3 1.15 1.15 0 01.85.29 1.16 1.16 0 01.29.84 1.09 1.09 0 01-.3.82 1.33 1.33 0 01-1.68 0 1.13 1.13 0 01-.28-.82zm0 5.71a1 1 0 011.12-1.12 1.15 1.15 0 01.85.29 1.13 1.13 0 01.29.83 1.11 1.11 0 01-.3.83 1.17 1.17 0 01-.84.29 1.14 1.14 0 01-.84-.3 1.12 1.12 0 01-.28-.83z" class="cls-4"/></g></g><g id="_3rd_stage:" class="cls-6" data-name="3rd stage:"><g class="cls-6"><path d="M250.88 2.89a2.59 2.59 0 01-.46 1.58 2.36 2.36 0 01-1.31.89 2.41 2.41 0 011.46.74 2.36 2.36 0 01.51 1.6 2.9 2.9 0 01-.86 2.2 3.23 3.23 0 01-2.34.82 4.69 4.69 0 01-2.23-.47V8.63a3.68 3.68 0 001 .43 3.43 3.43 0 001 .16 1.73 1.73 0 001.19-.36 1.5 1.5 0 00.41-1.16c0-1-.62-1.5-1.84-1.5h-.57V4.81h.54a1.87 1.87 0 001.25-.38 1.45 1.45 0 00.43-1.14 1.26 1.26 0 00-.28-.9 1 1 0 00-.78-.31 2.25 2.25 0 00-1.5.66l-.84-1.23a3.46 3.46 0 012.55-1 2.82 2.82 0 012 .64 2.21 2.21 0 01.67 1.74zM255.72 2.88a2.05 2.05 0 01.65.1l-.21 1.76a1.7 1.7 0 00-.5-.06 1.16 1.16 0 00-1 .52 2.75 2.75 0 00-.35 1.52v3.92h-1.82V3H254l.2 1.19h.06a2.64 2.64 0 01.66-1 1.21 1.21 0 01.8-.31zM259.19 10.77a1.84 1.84 0 01-1.66-1 5.67 5.67 0 01-.61-2.89 6 6 0 01.59-2.91 1.83 1.83 0 011.64-1.05 1.56 1.56 0 01.9.25 2.21 2.21 0 01.7.87h.11c-.05-.69-.08-1.18-.08-1.46V0h1.82v10.64h-1.35l-.31-1h-.06a1.82 1.82 0 01-1.69 1.13zm.59-1.53a.77.77 0 00.73-.47 4.24 4.24 0 00.26-1.67v-.24a5.07 5.07 0 00-.24-1.86.78.78 0 00-1.51.08 5.49 5.49 0 00-.23 1.8 5.21 5.21 0 00.21 1.76.8.8 0 00.78.6zM271.68 8.41a2.32 2.32 0 01-.65 1.74 2.73 2.73 0 01-1.93.62 3.67 3.67 0 01-1.87-.44V8.75a3.79 3.79 0 00.88.43 2.94 2.94 0 00.89.17.88.88 0 00.64-.21.72.72 0 00.23-.55.89.89 0 00-.24-.61 4 4 0 00-.85-.63 3.58 3.58 0 01-1.19-1 2.37 2.37 0 01-.36-1.35 1.91 1.91 0 01.67-1.53 2.75 2.75 0 011.83-.57 3.75 3.75 0 011.91.53L271 4.72a2.71 2.71 0 00-1.28-.4.71.71 0 00-.53.18.69.69 0 00-.17.46.76.76 0 00.22.54 3.76 3.76 0 00.8.6 5.28 5.28 0 011 .73 2.15 2.15 0 01.44.68 2.29 2.29 0 01.2.9zM275.47 9.24a2.09 2.09 0 00.83-.2v1.43a2.4 2.4 0 01-1.33.3 1.76 1.76 0 01-1.47-.59 2.75 2.75 0 01-.5-1.77V4.46h-.74v-.81l1-.66.46-1.61h1.17V3h1.38v1.46h-1.38v4c-.03.54.17.78.58.78zM281.1 10.64l-.36-1h-.05a2.53 2.53 0 01-.83.92 2.12 2.12 0 01-1.09.25 1.57 1.57 0 01-1.32-.63 2.8 2.8 0 01-.45-1.79 2.25 2.25 0 01.66-1.78 3.12 3.12 0 012-.65h1v-.59c0-.71-.31-1.06-.92-1.06a3.08 3.08 0 00-1.57.53l-.63-1.26a4.53 4.53 0 012.46-.72 2.38 2.38 0 011.84.7 2.82 2.82 0 01.63 2v5.12zm-1.58-1.29a.92.92 0 00.8-.45 2.16 2.16 0 00.29-1.19v-.64h-.56a1.27 1.27 0 00-.91.35 1.41 1.41 0 00-.29 1c0 .58.22.93.67.93zM289.38 3v1.1l-.91.21a2.42 2.42 0 01.27 1.2 2.59 2.59 0 01-.66 1.89 2.38 2.38 0 01-1.83.69 1.53 1.53 0 01-.5-.06 3.07 3.07 0 00-.25.26.56.56 0 00-.12.36c0 .32.28.48.83.48h1.1a2 2 0 011.5.52 2.17 2.17 0 01.52 1.57 2.52 2.52 0 01-.89 2.06 4 4 0 01-2.56.72 3 3 0 01-1.95-.55 1.92 1.92 0 01-.68-1.57 1.74 1.74 0 01.39-1.12 2.24 2.24 0 011.08-.7 1.33 1.33 0 01-.57-.42 1.06 1.06 0 01-.22-.67 1.09 1.09 0 01.07-.42 1.24 1.24 0 01.19-.36 4.46 4.46 0 01.52-.49 1.93 1.93 0 01-.75-.88 3.18 3.18 0 01-.27-1.32 2.72 2.72 0 01.65-1.94 2.52 2.52 0 011.88-.68 2.71 2.71 0 01.54.05 2.39 2.39 0 01.46.11zm-4.47 8.7a.87.87 0 00.28.7 1.22 1.22 0 00.81.24 2 2 0 001.24-.31 1 1 0 00.41-.87.71.71 0 00-.22-.6 1.37 1.37 0 00-.83-.18h-.88a.7.7 0 00-.59.28 1.13 1.13 0 00-.22.78zm.56-6.23q0 1.35.75 1.35c.5 0 .74-.46.74-1.36s-.24-1.4-.74-1.4-.75.51-.75 1.45zM293.11 10.77a2.73 2.73 0 01-2.25-1 4.47 4.47 0 01-.86-2.89 5 5 0 01.75-2.94 2.58 2.58 0 014-.16 4 4 0 01.72 2.54v1h-3.66a2.51 2.51 0 00.41 1.52 1.33 1.33 0 001.1.49 3.54 3.54 0 001.82-.55v1.5a4 4 0 01-2.03.49zm-.27-6.49a.75.75 0 00-.64.41 2.71 2.71 0 00-.29 1.31h1.84a2.77 2.77 0 00-.25-1.26.73.73 0 00-.66-.46zM296.72 4a1.13 1.13 0 01.29-.83 1.1 1.1 0 01.84-.3 1.15 1.15 0 01.85.29 1.16 1.16 0 01.3.84 1.09 1.09 0 01-.3.82 1.14 1.14 0 01-.84.3 1.1 1.1 0 01-.84-.3 1.14 1.14 0 01-.3-.82zm0 5.71a1.2 1.2 0 012-.83 1.13 1.13 0 01.29.83 1.11 1.11 0 01-.3.83 1.17 1.17 0 01-.84.29 1.1 1.1 0 01-.84-.3 1.12 1.12 0 01-.31-.83z" class="cls-4"/></g></g><g id="Turn" class="cls-6"><g class="cls-6"><path d="M181.57 41.64h-4.23V22.53H173v-3.74h13v3.74h-4.38zM196.9 41.64l-.52-2.24h-.22a4.45 4.45 0 01-1.64 1.87 4.51 4.51 0 01-2.45.68 4.19 4.19 0 01-3.55-1.59 7.89 7.89 0 01-1.2-4.77V24.23h4.2v10.36a6.87 6.87 0 00.46 2.87 1.52 1.52 0 001.47 1 2.05 2.05 0 002-1.34 11.85 11.85 0 00.61-4.52v-8.37h4.21v17.41zM211.13 23.9a4.8 4.8 0 011.5.24l-.48 4A3.29 3.29 0 00211 28a2.64 2.64 0 00-2.33 1.2 6.16 6.16 0 00-.81 3.47v9h-4.16V24.23h3.42l.48 2.77h.14a6.29 6.29 0 011.5-2.34 2.79 2.79 0 011.89-.76zM223.16 41.64V31.26a7.07 7.07 0 00-.45-2.86 1.53 1.53 0 00-1.47-1 2.08 2.08 0 00-2 1.34 11.72 11.72 0 00-.62 4.51v8.36h-4.16V24.23h3.3l.5 2.23h.26a4.56 4.56 0 011.61-1.88 4.45 4.45 0 012.46-.68 4.09 4.09 0 013.55 1.63 8 8 0 011.18 4.75v11.36z" class="cls-4"/></g></g><g id="River" class="cls-6"><g class="cls-6"><path d="M251.48 32.75v8.89h-4.25V18.79h5.56q3.54 0 5.22 1.67a7 7 0 011.68 5.11q0 4.34-2.93 6.05l4.39 10h-4.54L253 32.75zm0-3.66h1.1a2.54 2.54 0 002.15-.85 4.12 4.12 0 00.66-2.54 3.55 3.55 0 00-.7-2.49 2.79 2.79 0 00-2.15-.75h-1.06zM262.84 19.68a2.21 2.21 0 01.6-1.63 2.27 2.27 0 011.68-.6 2.09 2.09 0 012.24 2.23 2.14 2.14 0 01-.63 1.65 2.25 2.25 0 01-1.61.59 2.31 2.31 0 01-1.65-.59 2.14 2.14 0 01-.63-1.65zm4.33 22H263V24.23h4.16zM273.51 41.64L269 24.23h4.31l2.22 10.08a59.94 59.94 0 01.58 4h.06c0-.31.05-.76.13-1.35l.24-1.6c.08-.49.89-4.2 2.41-11.13h4.31l-4.56 17.41zM291.42 42a6.27 6.27 0 01-5.15-2.32 10.22 10.22 0 01-1.88-6.57 11.62 11.62 0 011.7-6.74 5.5 5.5 0 014.75-2.42 5.43 5.43 0 014.49 2.05 9.17 9.17 0 011.67 5.78V34h-8.36a5.71 5.71 0 00.95 3.46 3 3 0 002.5 1.13 8.06 8.06 0 004.16-1.27v3.43a9.19 9.19 0 01-4.83 1.25zm-.61-14.84a1.7 1.7 0 00-1.47.94 6.41 6.41 0 00-.67 2.93h4.22a6.36 6.36 0 00-.58-2.89 1.65 1.65 0 00-1.5-1.03zM307.14 23.9a4.8 4.8 0 011.5.24l-.49 4A3.29 3.29 0 00307 28a2.63 2.63 0 00-2.32 1.2 6.07 6.07 0 00-.82 3.47v9h-4.15V24.23h3.42l.47 2.72h.14a6.29 6.29 0 011.5-2.34 2.79 2.79 0 011.9-.71z" class="cls-4"/></g></g><path id="Line_32" d="M202.5 47.14l-2 28" class="cls-5" data-name="Line 32"/><path id="Line_33" d="M273.88 47.35L263.5 75.14" class="cls-5" data-name="Line 33"/></g></g></g></svg>